<svg width="32" height="32" viewBox="0 0 32 32" fill="none" xmlns="http://www.w3.org/2000/svg">
<path d="M15.9938 7.28361L16.5812 6.27097C16.9425 5.63819 17.7486 5.42555 18.3814 5.78684C19.0142 6.14813 19.2268 6.95432 18.8655 7.5871L13.2201 17.3615H17.3037C18.6261 17.3615 19.3683 18.9161 18.7943 19.9938H6.82632C6.09755 19.9938 5.51019 19.4065 5.51019 18.6777C5.51019 17.9489 6.09755 17.3615 6.82632 17.3615H10.1812L14.4774 9.91587L13.1355 7.5871C12.7742 6.95432 12.9868 6.15432 13.6196 5.78684C14.2514 5.42555 15.0514 5.63819 15.4199 6.27097L15.9938 7.28361ZM10.9161 21.3481L9.65161 23.5417C9.29032 24.1744 8.48413 24.3871 7.85135 24.0258C7.21858 23.6645 7.00594 22.8583 7.36723 22.2255L8.30968 20.5997C9.36774 20.2705 10.2328 20.5223 10.9161 21.3481ZM21.8126 17.3677H25.2387C25.9675 17.3677 26.5548 17.9551 26.5548 18.6839C26.5548 19.4126 25.9675 20 25.2387 20H23.3352L24.6194 22.2255C24.9806 22.8583 24.767 23.6573 24.1352 24.0258C23.5025 24.3871 22.7024 24.1744 22.335 23.5417C21.2534 21.6663 20.306 20.0266 19.4944 18.6219C18.6839 17.2192 18.0089 16.0509 17.471 15.1164C16.3675 13.2129 17.1551 11.3032 17.9355 10.6581C18.7669 12.0865 19.9932 14.2129 21.6198 17.0334L21.8126 17.3677ZM16 0C7.16077 0 0 7.16181 0 16C0 24.8382 7.16181 32 16 32C24.8392 32 32 24.8382 32 16C32 7.16181 24.8382 0 16 0ZM29.9355 16C29.9355 23.6583 23.7357 29.9355 16 29.9355C8.34168 29.9355 2.06452 23.7357 2.06452 16C2.06452 8.34168 8.26426 2.06452 16 2.06452C23.6583 2.06452 29.9355 8.26426 29.9355 16Z" fill="white"/>
<path d="M15.9938 7.28361L16.5812 6.27097C16.9425 5.63819 17.7486 5.42555 18.3814 5.78684C19.0142 6.14813 19.2268 6.95432 18.8655 7.5871L13.2201 17.3615H17.3037C18.6261 17.3615 19.3683 18.9161 18.7943 19.9938H6.82632C6.09755 19.9938 5.51019 19.4065 5.51019 18.6777C5.51019 17.9489 6.09755 17.3615 6.82632 17.3615H10.1812L14.4774 9.91587L13.1355 7.5871C12.7742 6.95432 12.9868 6.15432 13.6196 5.78684C14.2514 5.42555 15.0514 5.63819 15.4199 6.27097L15.9938 7.28361ZM10.9161 21.3481L9.65161 23.5417C9.29032 24.1744 8.48413 24.3871 7.85135 24.0258C7.21858 23.6645 7.00594 22.8583 7.36723 22.2255L8.30968 20.5997C9.36774 20.2705 10.2328 20.5223 10.9161 21.3481ZM21.8126 17.3677H25.2387C25.9675 17.3677 26.5548 17.9551 26.5548 18.6839C26.5548 19.4126 25.9675 20 25.2387 20H23.3352L24.6194 22.2255C24.9806 22.8583 24.767 23.6573 24.1352 24.0258C23.5025 24.3871 22.7024 24.1744 22.335 23.5417C21.2534 21.6663 20.306 20.0266 19.4944 18.6219C18.6839 17.2192 18.0089 16.0509 17.471 15.1164C16.3675 13.2129 17.1551 11.3032 17.9355 10.6581C18.7669 12.0865 19.9932 14.2129 21.6198 17.0334L21.8126 17.3677ZM16 0C7.16077 0 0 7.16181 0 16C0 24.8382 7.16181 32 16 32C24.8392 32 32 24.8382 32 16C32 7.16181 24.8382 0 16 0ZM29.9355 16C29.9355 23.6583 23.7357 29.9355 16 29.9355C8.34168 29.9355 2.06452 23.7357 2.06452 16C2.06452 8.34168 8.26426 2.06452 16 2.06452C23.6583 2.06452 29.9355 8.26426 29.9355 16Z" stroke="white"/>
</svg>
