<svg width="20" height="23" viewBox="0 0 20 23" fill="none" xmlns="http://www.w3.org/2000/svg">
<path d="M19.349 10.5055L2.01459 0.187526C1.81225 0.0670933 1.58162 0.0024128 1.34616 6.62061e-05C1.11071 -0.00228039 0.878831 0.0577905 0.67413 0.174166C0.46943 0.290542 0.299213 0.459069 0.1808 0.662597C0.0623865 0.866125 3.86438e-06 1.09739 0 1.33286V21.5561C0.000274877 21.7895 0.0617682 22.0187 0.178339 22.2208C0.29491 22.423 0.462478 22.591 0.664309 22.7082C0.86614 22.8253 1.09517 22.8874 1.32853 22.8883C1.56188 22.8893 1.7914 22.829 1.99416 22.7134L19.3284 12.8083C19.5307 12.6927 19.6992 12.5261 19.817 12.3251C19.9348 12.1242 19.9979 11.8958 19.9999 11.6628C20.002 11.4299 19.943 11.2005 19.8287 10.9974C19.7145 10.7944 19.549 10.6248 19.3488 10.5057L19.349 10.5055ZM1.77717 20.7905V2.11437L17.7853 11.643L1.77717 20.7905Z" fill="white"/>
</svg>
