<svg width="42" height="41" viewBox="0 0 42 41" fill="none" xmlns="http://www.w3.org/2000/svg">
<path d="M37.6147 17.1489H36.2386V17.078H20.8636V23.9114H30.5183C29.1097 27.8892 25.3249 30.7447 20.8636 30.7447C15.203 30.7447 10.6136 26.1553 10.6136 20.4947C10.6136 14.8341 15.203 10.2447 20.8636 10.2447C23.4765 10.2447 25.8536 11.2304 27.6636 12.8405L32.4956 8.0085C29.4446 5.16498 25.3634 3.41138 20.8636 3.41138C11.4293 3.41138 3.78027 11.0604 3.78027 20.4947C3.78027 29.929 11.4293 37.578 20.8636 37.578C30.2979 37.578 37.9469 29.929 37.9469 20.4947C37.9469 19.3493 37.8291 18.2312 37.6147 17.1489Z" fill="#FFC107"/>
<path d="M5.75 12.5433L11.3627 16.6595C12.8814 12.8995 16.5595 10.2447 20.8636 10.2447C23.4765 10.2447 25.8537 11.2304 27.6636 12.8405L32.4957 8.0085C29.4446 5.16498 25.3634 3.41138 20.8636 3.41138C14.3019 3.41138 8.61146 7.1159 5.75 12.5433Z" fill="#FF3D00"/>
<path d="M20.8637 37.5781C25.2763 37.5781 29.2858 35.8894 32.3172 33.1432L27.0299 28.6691C25.3148 29.9683 23.1828 30.7447 20.8637 30.7447C16.4203 30.7447 12.6475 27.9115 11.2261 23.9575L5.65527 28.2497C8.48257 33.7821 14.2243 37.5781 20.8637 37.5781Z" fill="#4CAF50"/>
<path d="M37.6148 17.149H36.2388V17.0781H20.8638V23.9115H30.5184C29.8419 25.8222 28.6128 27.4699 27.0274 28.67L27.03 28.6683L32.3173 33.1424C31.9432 33.4824 37.9471 29.0365 37.9471 20.4948C37.9471 19.3494 37.8292 18.2313 37.6148 17.149Z" fill="#1976D2"/>
</svg>
