<svg width="26" height="27" viewBox="0 0 26 27" fill="none" xmlns="http://www.w3.org/2000/svg">
<path d="M18.5338 1H7.46628C3.89507 1 1 4.0157 1 7.73571V19.2643C1 22.9843 3.89507 26 7.46628 26H18.5337C22.1049 26 25 22.9843 25 19.2643V7.73571C25 4.0157 22.105 1 18.5338 1Z" stroke="white" stroke-width="2" stroke-miterlimit="10"/>
<path d="M13.0002 19.5346C16.1996 19.5346 18.7933 16.8328 18.7933 13.5001C18.7933 10.1673 16.1996 7.46558 13.0002 7.46558C9.8007 7.46558 7.20703 10.1673 7.20703 13.5001C7.20703 16.8328 9.8007 19.5346 13.0002 19.5346Z" stroke="white" stroke-width="2" stroke-miterlimit="10"/>
<path d="M20.0344 7.46563C20.72 7.46563 21.2758 6.88668 21.2758 6.17251C21.2758 5.45834 20.72 4.87939 20.0344 4.87939C19.3488 4.87939 18.793 5.45834 18.793 6.17251C18.793 6.88668 19.3488 7.46563 20.0344 7.46563Z" fill="white"/>
</svg>
